<svg preserveAspectRatio="none" width="100%" height="100%" overflow="visible" style="display: block;" viewBox="0 0 20 20" fill="none" xmlns="http://www.w3.org/2000/svg">
<g id="SVG">
<path id="Vector" d="M8.33333 18.3333V12.8583" stroke="var(--stroke-0, #4E92FF)" stroke-width="1.66667" stroke-linecap="round" stroke-linejoin="round"/>
<path id="Vector_2" d="M10 9.16667H10.0083" stroke="var(--stroke-0, #4E92FF)" stroke-width="1.66667" stroke-linecap="round" stroke-linejoin="round"/>
<path id="Vector_3" d="M10 5.83333H10.0083" stroke="var(--stroke-0, #4E92FF)" stroke-width="1.66667" stroke-linecap="round" stroke-linejoin="round"/>
<path id="Vector_4" d="M11.6667 12.8583V18.3333" stroke="var(--stroke-0, #4E92FF)" stroke-width="1.66667" stroke-linecap="round" stroke-linejoin="round"/>
<path id="Vector_5" d="M12.5 13.3333C11.7788 12.7924 10.9015 12.5 10 12.5C9.09846 12.5 8.22123 12.7924 7.5 13.3333" stroke="var(--stroke-0, #4E92FF)" stroke-width="1.66667" stroke-linecap="round" stroke-linejoin="round"/>
<path id="Vector_6" d="M13.3333 9.16667H13.3417" stroke="var(--stroke-0, #4E92FF)" stroke-width="1.66667" stroke-linecap="round" stroke-linejoin="round"/>
<path id="Vector_7" d="M13.3333 5.83333H13.3417" stroke="var(--stroke-0, #4E92FF)" stroke-width="1.66667" stroke-linecap="round" stroke-linejoin="round"/>
<path id="Vector_8" d="M6.66667 9.16667H6.675" stroke="var(--stroke-0, #4E92FF)" stroke-width="1.66667" stroke-linecap="round" stroke-linejoin="round"/>
<path id="Vector_9" d="M6.66667 5.83333H6.675" stroke="var(--stroke-0, #4E92FF)" stroke-width="1.66667" stroke-linecap="round" stroke-linejoin="round"/>
<path id="Vector_10" d="M15 1.66667H5C4.07953 1.66667 3.33333 2.41286 3.33333 3.33333V16.6667C3.33333 17.5871 4.07953 18.3333 5 18.3333H15C15.9205 18.3333 16.6667 17.5871 16.6667 16.6667V3.33333C16.6667 2.41286 15.9205 1.66667 15 1.66667Z" stroke="var(--stroke-0, #4E92FF)" stroke-width="1.66667" stroke-linecap="round" stroke-linejoin="round"/>
</g>
</svg>
